<svg xmlns="http://www.w3.org/2000/svg" viewBox="0 0 412.444 90.031">
  <defs>
    <style>
      .cls-1, .cls-3 {
        fill: #29cbb9;
      }

      .cls-2 {
        fill: #1a1818;
        stroke: #1a1818;
      }

      .cls-2, .cls-3 {
        stroke-width: 2.805px;
      }

      .cls-3 {
        stroke: #29cbb9;
      }
    </style>
  </defs>
  <g id="Group_8" data-name="Group 8" transform="translate(0 0)">
    <g id="Group_1" data-name="Group 1">
      <path id="Path_1" data-name="Path 1" class="cls-1" d="M33.152,73.087c-5.193,4.125-13.011,12.178-13.879,16.944,5.2-4.766,15.709-7.094,22.07-6.614,38.309,2.891,34.689-14.183,52.281-20.449-4.67-1.121-10.781-4.894-10.442-11.779,6.391,10.182,15.6,6.933,18.089,3.14.8-1.213,3.84-6.748,1.19-6.932-2.492-.171-3.61-4.6-5.114-6.707-6.862-9.613-14.709-7.7-15.033-7.591l-8.731-4.5,2.71,9.089C75.128,40.517,73,44,69.317,44.148c-6.169-.212-5.256-5.075-2.8-13.715C68.257,24.3,80.083-22.176,0,13.094c0,0,51.445-8.394,19.53,16.3,0,0,29.082-6.532,17.8,12.658C53.213,39.455,54.369,56.234,33.152,73.087ZM93.424,50.023c-2.373,1.682-5.873.6-7.82-2.429s-1.6-6.837.779-8.518c2.083-1.475,5.04-.812,7.048,1.422a2.408,2.408,0,0,0-1.711-.008c-1.623.624-2.392,2.914-1.729,5.111s2.52,3.472,4.138,2.847a2.622,2.622,0,0,0,.971-.683A4.683,4.683,0,0,1,93.424,50.023Z"/>
    </g>
    <g id="Group_7" data-name="Group 7">
      <g id="Group_3" data-name="Group 3">
        <g id="Group_2" data-name="Group 2">
          <path id="Path_2" data-name="Path 2" class="cls-2" d="M123.893,41.35h15.468v3.2H127.38v8.412h11.981V56.2H127.38V70.687h-3.487Z"/>
          <path id="Path_3" data-name="Path 3" class="cls-2" d="M157.819,41.35h6.893c2.79,0,4.924.082,6.729,1.477a8.107,8.107,0,0,1,2.749,6.524c0,4.8-2.749,7.345-7.919,7.345h-.615l11.2,13.991h-4.431L161.717,56.7h-.493V70.687h-3.4Zm3.4,12.761h2.667c4.6,0,6.853-.657,6.853-4.719,0-4.267-2.216-5.088-6.853-5.088h-2.667Z"/>
          <path id="Path_4" data-name="Path 4" class="cls-2" d="M217.512,66.954a15.907,15.907,0,0,1-22.2,0,15.211,15.211,0,0,1,0-21.788,16.009,16.009,0,0,1,22.2,0,15.307,15.307,0,0,1,0,21.788Zm-2.626-2.339a11.841,11.841,0,0,0,3.528-8.535,12.029,12.029,0,0,0-3.528-8.617,11.988,11.988,0,0,0-16.987,0,12.1,12.1,0,0,0-3.529,8.617,11.911,11.911,0,0,0,3.529,8.535,11.891,11.891,0,0,0,16.987,0Z"/>
          <path id="Path_5" data-name="Path 5" class="cls-2" d="M263.048,66.954a15.906,15.906,0,0,1-22.2,0,15.209,15.209,0,0,1,0-21.788,16.008,16.008,0,0,1,22.2,0,15.307,15.307,0,0,1,0,21.788Zm-2.626-2.339a11.841,11.841,0,0,0,3.528-8.535,12.029,12.029,0,0,0-3.528-8.617,11.987,11.987,0,0,0-16.986,0,12.1,12.1,0,0,0-3.53,8.617,11.912,11.912,0,0,0,3.53,8.535,11.89,11.89,0,0,0,16.986,0Z"/>
          <path id="Path_6" data-name="Path 6" class="cls-2" d="M290.092,44.673H281.8V41.35h20.064v3.323h-8.247V70.687h-3.529Z"/>
        </g>
      </g>
      <g id="Group_5" data-name="Group 5">
        <g id="Group_4" data-name="Group 4">
          <path id="Path_7" data-name="Path 7" class="cls-3" d="M319.829,41.35h6.114c3.2,0,5.539.123,7.385,1.477a7.578,7.578,0,0,1,2.955,6.237,5.83,5.83,0,0,1-4.349,6.072c3.446.534,5.621,3.283,5.621,7.222a8.684,8.684,0,0,1-2.421,6.113c-2.134,2.093-5.006,2.216-9.191,2.216h-6.114Zm3.406,12.843h2.708c4.718,0,6.77-1.149,6.77-4.719,0-4.226-2.134-5.088-6.77-5.088h-2.708Zm0,13.458h2.708c2.79,0,4.718-.082,5.991-.985a5.251,5.251,0,0,0,1.928-4.308,4.951,4.951,0,0,0-2.421-4.637c-1.231-.738-2.667-.779-4.472-.779h-3.734Z"/>
          <path id="Path_8" data-name="Path 8" class="cls-3" d="M379.44,70.687h-3.774L371.85,61.7H360.4l-3.816,8.985h-3.775L366.105,40.2ZM361.428,58.706h9.355l-4.678-10.791Z"/>
          <path id="Path_9" data-name="Path 9" class="cls-3" d="M399.265,44.673h-8.288V41.35h20.064v3.323h-8.247V70.687h-3.529Z"/>
        </g>
      </g>
    </g>
  </g>
</svg>
